<svg width="32" height="26" viewBox="0 0 32 26" fill="none" xmlns="http://www.w3.org/2000/svg">
<path d="M7.65625 25.7344C5.54688 25.7344 3.85938 24.9609 2.59375 23.4141C1.375 21.8203 0.765625 19.9453 0.765625 17.7891C0.765625 16.0078 1.09375 14.3438 1.75 12.7969C2.40625 11.25 3.22656 9.84375 4.21094 8.57812C5.24219 7.3125 6.32031 6.21094 7.44531 5.27344C8.61719 4.28906 9.69531 3.46875 10.6797 2.8125C11.6641 2.10938 12.4609 1.59375 13.0703 1.26562C13.7266 0.9375 14.0312 0.773438 13.9844 0.773438L15.6016 2.95312C15.1797 3.14063 14.6172 3.51562 13.9141 4.07812C13.2109 4.59375 12.5078 5.22656 11.8047 5.97656C11.1484 6.72656 10.5625 7.54687 10.0469 8.4375C9.53125 9.28125 9.27344 10.1016 9.27344 10.8984C9.27344 11.3672 9.55469 11.8359 10.1172 12.3047C10.6797 12.7266 11.2891 13.2422 11.9453 13.8516C12.6016 14.4141 13.2109 15.1172 13.7734 15.9609C14.3359 16.7578 14.6172 17.7422 14.6172 18.9141C14.6172 19.9453 14.4062 20.8828 13.9844 21.7266C13.6094 22.5703 13.0938 23.2969 12.4375 23.9062C11.8281 24.4688 11.1016 24.9141 10.2578 25.2422C9.41406 25.5703 8.54688 25.7344 7.65625 25.7344ZM24.9531 25.875C23.875 25.875 22.8906 25.6406 22 25.1719C21.1094 24.7031 20.3359 24.0703 19.6797 23.2734C19.0234 22.4766 18.5078 21.5625 18.1328 20.5312C17.8047 19.4531 17.6406 18.3047 17.6406 17.0859C17.6406 14.6484 18.1562 12.3984 19.1875 10.3359C20.2656 8.22656 21.4375 6.42187 22.7031 4.92188C24.2031 3.14063 25.9141 1.52344 27.8359 0.0703125L29.875 1.96875C29.4531 2.25 28.9375 2.69531 28.3281 3.30469C27.7656 3.91406 27.2266 4.64062 26.7109 5.48438C26.2422 6.28125 25.8203 7.125 25.4453 8.01562C25.1172 8.90625 24.9531 9.77344 24.9531 10.6172C24.9531 11.1797 25.3047 11.6484 26.0078 12.0234C26.7109 12.3984 27.4844 12.8672 28.3281 13.4297C29.1719 13.9922 29.9453 14.7187 30.6484 15.6094C31.3516 16.4531 31.7031 17.6484 31.7031 19.1953C31.7031 20.1328 31.5156 21 31.1406 21.7969C30.7656 22.5937 30.25 23.2969 29.5938 23.9062C28.9844 24.5156 28.2578 25.0078 27.4141 25.3828C26.6172 25.7109 25.7969 25.875 24.9531 25.875Z" fill="#26278B"/>
</svg>
